<?xml version="1.0" encoding="UTF-8"?>
<svg xmlns="http://www.w3.org/2000/svg" version="1.1" xmlns:xlink="http://www.w3.org/1999/xlink" viewBox="0 0 114 34">
  <defs>
    <style>
      .cls-1 {
        fill: none;
      }

      .cls-2 {
        fill: #eeb97c;
      }

      .cls-3 {
        clip-path: url(#clippath);
      }
    </style>
    <clipPath id="clippath">
      <rect class="cls-1" width="114" height="34"/>
    </clipPath>
  </defs>
  <!-- Generator: Adobe Illustrator 28.7.8, SVG Export Plug-In . SVG Version: 1.2.0 Build 200)  -->
  <g>
    <g id="_圖層_1" data-name="圖層_1">
      <g class="cls-3">
        <path class="cls-2" d="M36.4,32.2c-.6,0-1-.4-1-1,0-.6.4-1,1-1,2.8,0,5.7-.4,8.7-1.1.5-.1,1.1.2,1.2.7.1.5-.2,1.1-.7,1.2-3.1.8-6.2,1.1-9.1,1.1h0ZM27.6,31c0,0-.2,0-.3,0-2.9-.8-5.8-2.1-8.5-3.7-.5-.3-.6-.9-.3-1.4.3-.5.9-.6,1.4-.3,2.5,1.5,5.2,2.7,8,3.5.5.1.8.7.7,1.2-.1.4-.5.7-1,.7ZM53.9,28.1c-.4,0-.8-.2-.9-.6-.2-.5,0-1.1.5-1.3,2.6-1.1,5.2-2.5,7.8-4.1.5-.3,1.1-.1,1.4.3.3.5.1,1.1-.3,1.4-2.7,1.7-5.4,3.1-8.1,4.2-.1,0-.3,0-.4,0ZM112.4,26.7c-.2,0-.4,0-.6-.2-2.5-1.7-5.1-3.2-7.6-4.5-.5-.2-.7-.8-.5-1.3.2-.5.8-.7,1.3-.5,2.6,1.3,5.3,2.8,7.9,4.6.5.3.6.9.3,1.4-.2.3-.5.4-.8.4ZM12.2,21.9c-.2,0-.5,0-.7-.3-2.1-2-4.1-4.3-6-6.9-.3-.4-.2-1.1.2-1.4.4-.3,1.1-.2,1.4.2,1.8,2.5,3.8,4.7,5.8,6.6.4.4.4,1,0,1.4-.2.2-.5.3-.7.3ZM69.8,19.8c-.4,0-.8-.2-.9-.6-.2-.5,0-1.1.6-1.3,2.9-1.1,5.9-2,8.9-2.4.6,0,1.1.3,1.1.8,0,.5-.3,1.1-.8,1.1-2.8.4-5.7,1.2-8.5,2.3-.1,0-.2,0-.4,0ZM96.3,18.8c0,0-.2,0-.3,0-2.9-.9-5.8-1.4-8.6-1.6-.6,0-1-.5-.9-1.1s.5-1,1.1-.9c3,.2,6,.8,9,1.7.5.2.8.7.7,1.2-.1.4-.5.7-1,.7ZM1.5,7.5c-.4,0-.7-.2-.9-.5C-2,2.3-3.2-1.2-3.2-1.4c-.2-.5.1-1.1.6-1.3s1.1.1,1.3.6c0,0,1.2,3.5,3.7,8.1.3.5,0,1.1-.4,1.4-.2,0-.3.1-.5.1Z"/>
      </g>
    </g>
  </g>
</svg>