<?xml version="1.0" encoding="UTF-8"?>
<svg xmlns="http://www.w3.org/2000/svg" version="1.1" viewBox="0 0 180 120">
  <defs>
    <style>
      .cls-1 {
        fill: none;
      }

      .cls-2 {
        fill: #eeb97c;
      }
    </style>
  </defs>
  <!-- Generator: Adobe Illustrator 28.7.8, SVG Export Plug-In . SVG Version: 1.2.0 Build 200)  -->
  <g>
    <g id="_圖層_1" data-name="圖層_1">
      <rect class="cls-1" width="180" height="120"/>
      <path class="cls-2" d="M50.3,118.4c-.5,0-1-.4-1-1s.4-1,1-1c3.1,0,6-.2,8.9-.5.5,0,1,.3,1.1.9,0,.5-.3,1-.9,1.1-2.9.3-6,.5-9.1.5h0ZM41.3,118h0c-2.9-.3-6-.6-9-1.1-.5,0-.9-.6-.8-1.1,0-.5.6-.9,1.1-.8,3,.5,6,.9,8.9,1.1.5,0,1,.5.9,1.1,0,.5-.5.9-1,.9h-.1ZM68.1,116.2c-.4,0-.8-.3-1-.7,0-.5.2-1.1.7-1.2,2.9-.8,5.7-1.7,8.3-2.9.5-.2,1.1,0,1.3.5.2.5,0,1.1-.5,1.3-2.7,1.2-5.6,2.2-8.6,3h-.3,0ZM23.6,115.1h-.2c-2.9-.7-5.8-1.5-8.8-2.3-.5-.2-.8-.7-.7-1.2.2-.5.7-.8,1.2-.7,2.9.9,5.8,1.6,8.6,2.3.5,0,.9.7.7,1.2-.1.5-.5.8-1,.8h.2ZM6.3,109.9h-.3c-5.2-1.9-8.3-3.3-8.5-3.4-.5-.2-.7-.8-.5-1.3s.8-.7,1.3-.5c0,0,3.2,1.5,8.3,3.3.5.2.8.8.6,1.3,0,.4-.5.7-.9.7h0ZM84.5,108.8c-.3,0-.6-.2-.8-.4-.3-.5-.2-1.1.3-1.4,2.4-1.7,4.7-3.6,6.7-5.7.4-.4,1-.4,1.4,0s.4,1,0,1.4c-2.1,2.2-4.5,4.2-7,5.9-.2,0-.4.2-.6.2ZM97,96.1c-.2,0-.4,0-.6-.2-.5-.3-.6-.9-.3-1.4,1.6-2.4,3-5,4.3-7.7.2-.5.8-.7,1.3-.5s.7.8.5,1.3c-1.3,2.8-2.8,5.5-4.5,8-.2.3-.5.4-.8.4h0ZM104.6,79.9h-.3c-.5-.2-.8-.7-.7-1.3.9-2.7,1.6-5.6,2.2-8.6,0-.5.6-.9,1.2-.8.5,0,.9.6.8,1.2-.6,3.1-1.4,6-2.3,8.8,0,.4-.5.7-1,.7h.1ZM108.3,62.3h0c-.5,0-.9-.6-.9-1.1.4-3.1,1-6.1,1.7-8.9,0-.5.7-.9,1.2-.7.5,0,.9.7.7,1.2-.7,2.8-1.2,5.7-1.6,8.7,0,.5-.5.9-1,.9h0ZM112.6,44.9h-.4c-.5-.2-.8-.8-.6-1.3,1.1-2.9,2.4-5.6,3.9-8.2.3-.5.9-.6,1.4-.4.5.3.6.9.4,1.4-1.4,2.5-2.7,5.2-3.8,8-.2.4-.5.6-.9.6h0ZM121.5,29.3c-.2,0-.4,0-.6-.2-.4-.3-.5-1-.2-1.4,1.9-2.4,4-4.6,6.2-6.7.4-.4,1-.3,1.4,0,.4.4.3,1,0,1.4-2.2,2-4.2,4.2-6,6.5-.2.2-.5.4-.8.4ZM134.6,17.1c-.3,0-.6-.2-.8-.4-.3-.5-.2-1.1.3-1.4,2.4-1.7,5.1-3.2,7.8-4.6.5-.3,1.1,0,1.3.4s0,1.1-.4,1.3c-2.7,1.4-5.2,2.9-7.6,4.5-.2.1-.4.2-.6.2ZM150.6,8.9c-.4,0-.8-.2-.9-.6-.2-.5,0-1.1.6-1.3,2.7-1,5.7-2,8.6-2.8.5,0,1.1.2,1.2.7s-.2,1.1-.7,1.2c-2.9.8-5.8,1.7-8.5,2.8h-.4,0ZM167.9,4.1c-.5,0-.9-.3-1-.8s.3-1.1.8-1.2c2.9-.6,5.9-1,9-1.4.5,0,1,.3,1.1.9,0,.5-.3,1-.9,1.1-3,.4-6,.8-8.8,1.4h-.2Z"/>
    </g>
  </g>
</svg>