<?xml version="1.0" encoding="UTF-8"?>
<svg xmlns="http://www.w3.org/2000/svg" version="1.1" viewBox="0 0 140 140">
  <defs>
    <style>
      .cls-1 {
        fill: #eeb97c;
      }
    </style>
  </defs>
  <!-- Generator: Adobe Illustrator 28.7.8, SVG Export Plug-In . SVG Version: 1.2.0 Build 200)  -->
  <g>
    <g id="_圖層_1" data-name="圖層_1">
      <path class="cls-1" d="M136.3,69.8c0-3.9-31.9-3.3-33.3-3.3-.3,0-1.6,0-3.6.1,2.1-.6,3.5-1,3.7-1.1,8.4-2.5,16.2-5.1,21.9-7.4,9.4-3.8,9-5.1,8.8-5.6-1.1-3.7-31.7,5.2-33,5.5-1.2.3-2.3.7-3.5,1,1.8-1.1,3.1-1.8,3.3-2,1.2-.7,28.3-17.4,26.3-20.7-2-3.3-29.2,13.3-30.4,14-.2.1-1.4.8-3.1,1.9.9-.9,1.8-1.8,2.6-2.8,6-6.4,11.4-12.6,15.2-17.5,6.1-8,5.2-8.9,4.8-9.3-2.8-2.7-24.7,20.5-25.7,21.4-.9.9-1.7,1.8-2.6,2.7.7-1.1,1.3-2.2,2-3.4,4.4-7.5,8.3-14.8,10.8-20.5,4.2-9.2,3.1-9.9,2.6-10.2-3.4-2-19.5,25.5-20.2,26.7-.1.2-.8,1.3-1.7,2.9.5-1.8.8-3,.9-3.2,2.3-8.4,4.1-16.5,5.1-22.6,1.6-10,.4-10.3-.2-10.5-3.8-1-12.1,29.7-12.5,31-.3,1.1-.6,2.2-.9,3.2,0-1.8,0-3.1,0-3.3,0-1.4,0-33.2-3.9-33.2s-3.9,31.9-3.9,33.2,0,1.6,0,3.7c-.3-1.1-.6-2.2-.9-3.4-.4-1.3-8.7-32-12.5-31-.6.2-1.8.5-.2,10.5,1,6.1,2.8,14.2,5.1,22.6,0,.2.4,1.4.9,3.2-.9-1.6-1.6-2.7-1.7-2.9-.7-1.2-16.8-28.6-20.2-26.7-.5.3-1.6,1,2.6,10.2,2.6,5.7,6.4,12.9,10.8,20.5.1.2.9,1.5,2,3.4-.8-.9-1.7-1.8-2.6-2.8-6-6.4-11.9-12.1-16.6-16.1-7.7-6.6-8.6-5.7-9-5.3-.4.4-1.4,1.3,4.8,9.3,3.8,4.9,9.2,11.2,15.2,17.5.2.2,1.2,1.2,2.7,2.8-1-.6-2-1.3-3.1-1.9-1.2-.7-28.4-17.3-30.4-14-2,3.3,25.1,20,26.3,20.7,1.1.7,2.2,1.3,3.2,2-1.1-.3-2.3-.7-3.4-1-1.3-.4-31.9-9.3-33-5.5-.2.6-.5,1.8,8.8,5.6,5.8,2.4,13.5,5,21.9,7.4.3,0,1.6.5,3.7,1.1-2,0-3.4,0-3.6-.1-1.4,0-33.2-.6-33.3,3.3,0,3.9,31.8,4.6,33.1,4.6.2,0,.9,0,1.9,0-.6.1-1.1.3-1.7.4-8.5,2.1-16.4,4.5-22.2,6.6-9.5,3.5-9.2,4.7-9,5.3,0,.4.3,1.1,3.3,1.1s3.8-.2,7.2-.7c6.2-.9,14.2-2.5,22.7-4.7.9-.2,1.8-.4,2.6-.7-1.3.7-2.2,1.2-2.4,1.3-1.2.7-29,16.1-27.2,19.5.2.3.6.5,1.3.5,5.9,0,28.6-12.5,29.7-13.1.8-.4,1.6-.9,2.4-1.3-.7.6-1.3,1.2-2,1.9-1,.9-23.9,23-21.2,25.8.2.2.4.2.7.2,4.7,0,25.1-19.5,26-20.4.2-.1.9-.8,2-1.9-.5.8-1,1.5-1.4,2.3-.7,1.2-17.2,28.4-13.9,30.4.1,0,.3.1.4.1,4.1,0,19.5-25.3,20.2-26.5,1.1-1.8,2.1-3.6,3.2-5.3-.9,3.1-1.6,5.3-1.6,5.7-2.3,8.4-4.2,16.4-5.2,22.6-1.7,10-.5,10.3.1,10.5,0,0,.1,0,.2,0,3.8,0,12.1-29.7,12.5-31,.3-1.1.6-2.1.9-3.1,0,1.9,0,3.1,0,3.4,0,8.7.4,17,1,23.1,1,10,2.3,10.1,2.9,10.1h0c3.9,0,3.9-31.9,3.9-33.2,0-1.2,0-2.5,0-3.7.3,1.1.6,2.2.9,3.3.4,1.3,8.7,31,12.5,31,0,0,.1,0,.2,0,.6-.2,1.8-.5.1-10.5-1-6.1-2.9-14.1-5.2-22.6,0-.3-.7-2.5-1.6-5.6,1,1.7,2.1,3.5,3.2,5.3,4.5,7.5,9.1,14.3,12.9,19.3,4.7,6.2,6.4,7.2,7.2,7.2s.4,0,.5-.2c.5-.3,1.6-1-2.7-10.1-2.7-5.6-6.6-12.8-11.2-20.3-.5-.8-.9-1.5-1.4-2.3.6.6,1.3,1.3,1.9,1.9.9.9,21.3,20.4,26,20.4s.5,0,.7-.2c.4-.4,1.3-1.4-5.2-9.1-4-4.7-9.7-10.7-16-16.8-.7-.6-1.3-1.2-2-1.9.8.4,1.6.9,2.4,1.3,7.6,4.2,15,7.9,20.7,10.3,5.3,2.3,7.8,2.9,9,2.9s1.1-.3,1.2-.6c.3-.5.9-1.7-7.4-7.4-5.1-3.6-12.1-7.8-19.8-12.1-.2-.1-1.1-.6-2.4-1.3.9.2,1.8.5,2.6.7,8.5,2.1,16.5,3.8,22.7,4.7,3.4.5,5.7.7,7.2.7,3,0,3.2-.7,3.3-1.1.1-.6.5-1.8-9-5.3-5.8-2.1-13.7-4.5-22.2-6.6-.6-.1-1.1-.3-1.7-.4,1.1,0,1.8,0,1.9,0,1.4,0,33.2-.7,33.1-4.6ZM101.2,59.1c18.4-5.4,30.2-7.1,31.6-6.3-.7,1.4-11.6,6.3-30,11.7-3,.9-5.7,1.6-8.3,2.3-3.9.2-8.6.5-12.9.9,3.9-1.9,8.1-4.2,11.6-6.2,2.5-.8,5.2-1.6,8-2.5ZM70,74.8h0c-2.5,0-4.5-2-4.5-4.5s2-4.5,4.5-4.5h0c2.5,0,4.5,2,4.5,4.5s-2,4.5-4.5,4.5ZM72.5,89.6c-.8-3.7-1.5-6.9-1.9-9.5.1-.7.2-1.3.3-1.9.2,0,.4,0,.6,0,.4,2.9.7,6.8,1,11.5ZM69.4,80.1c-.5,2.8-1.1,6.2-2,10.1.2-4.9.6-9,1-12,0,0,0,0,0-.1.2,0,.5,0,.7.1,0,.6.2,1.2.3,1.9ZM62.5,67.7c0,.3-.2.5-.2.8-.1,0-.2,0-.4,0-2.6-1.2-5.8-2.8-9.5-4.8,3.9,1.4,7.2,2.6,9.8,3.7.1.1.3.2.4.3ZM54.8,59.3c3.6,2.5,6.5,4.6,8.7,6.4-.2.3-.4.5-.5.8,0,0-.2,0-.3-.1-2.2-1.8-4.8-4.2-7.9-7.1ZM62.1,69.7c0,.1,0,.2,0,.4-.6,0-1.2.2-1.9.2-2.5-.4-5.5-1.1-9-1.9,4.2.3,7.7.7,10.4,1,.2,0,.3.1.5.2ZM62.2,71.8c0,0,0,.1,0,.2-.7.3-1.5.6-2.3.9-3.1.3-6.9.5-11.3.6,4.5-.9,8.3-1.6,11.5-2,.7.1,1.4.2,2.1.3ZM60.2,74c.9,0,1.8-.2,2.6-.3,0,0,0,0,0,0-.4.3-.8.6-1.2.9-2.7,1-6.1,2.2-10.2,3.4,3.4-1.7,6.3-3,8.8-4.1ZM62.2,75.7c.5-.2,1-.4,1.5-.6,0,0,.1.2.2.3-.3.4-.7.8-1,1.3-2.4,1.7-5.4,3.7-9,5.9,3.2-2.8,6-5.1,8.3-6.9ZM61,59c1.6,1.9,2.9,3.7,4,5.1,0,0-.1,0-.2.1-1.1-1.5-2.4-3.2-3.8-5.3ZM63.7,77.5c.5-.3.9-.7,1.4-1,.2.2.4.3.6.4-2,2.5-4.7,5.6-8.2,9.3,2.4-3.5,4.5-6.5,6.3-8.8ZM62.6,52.4c2,3.8,3.5,7,4.7,9.6,0,.3,0,.6.1.9-.3.1-.6.2-.9.4-1.1-2.8-2.5-6.4-3.9-10.8ZM67.5,51.3c.9,4,1.5,7.3,1.9,10.1,0,.4-.1.7-.2,1.1-.2,0-.4,0-.6,0-.1-.3-.2-.6-.4-.9-.3-2.8-.6-6.2-.8-10.4ZM70.5,61.4c.4-2.8,1.1-6.4,2-10.5-.2,4.1-.5,7.6-.8,10.4-.2.4-.3.8-.5,1.2-.2,0-.3,0-.5,0,0-.3,0-.7-.2-1.1ZM77.2,66.2c-.1,0-.2.1-.4.2-.2-.3-.3-.5-.5-.8,2.2-1.8,5.2-4,8.8-6.5-3.1,3-5.8,5.3-7.9,7.1ZM77.8,67.2c2.6-1.1,5.8-2.4,9.8-3.7-3.8,2-7,3.6-9.5,4.8-.1,0-.3,0-.4,0,0-.3-.2-.5-.2-.8.1-.1.3-.2.4-.3ZM72.6,62.8c0-.4.1-.8.2-1.3,1.1-2.6,2.7-5.7,4.6-9.4-1.5,4.5-2.8,8.2-4,11-.2-.1-.5-.2-.8-.3ZM73.4,77.4c.9,2,1.8,4.5,2.8,7.5-1.5-2.8-2.6-5.2-3.5-7.2.2,0,.4-.2.7-.3ZM75,76.4c.4.3.8.6,1.2.9,1.8,2.3,3.9,5.2,6.3,8.8-3.5-3.7-6.2-6.8-8.1-9.2.2-.1.4-.3.6-.5ZM74.9,64.1c1.1-1.5,2.5-3.3,4.1-5.3-1.5,2.1-2.8,3.9-3.9,5.4,0,0-.1,0-.2-.1ZM76.1,75.3c0,0,.2-.2.2-.3.4.2.9.4,1.4.5,2.3,1.8,5.1,4,8.3,6.9-3.6-2.2-6.6-4.2-9-5.9-.3-.4-.6-.8-.9-1.2ZM77.1,73.7s0,0,0,0c.8,0,1.7.2,2.6.3,2.5,1.1,5.4,2.4,8.8,4.1-4.1-1.2-7.5-2.4-10.2-3.4-.4-.3-.8-.6-1.2-.9ZM77.7,71.8c0,0,0-.2,0-.2.7,0,1.4-.2,2.1-.3,3.1.4,7,1.1,11.5,2-4.5,0-8.3-.3-11.3-.6-.8-.3-1.5-.6-2.2-.9ZM79.8,70.2c-.7,0-1.3-.2-1.9-.2,0-.1,0-.2,0-.4.2,0,.3-.1.5-.2,2.8-.4,6.3-.8,10.4-1-3.5.8-6.5,1.4-9,1.9ZM97.2,51.3c16.4-10,27.3-14.8,28.8-14.3-.3,1.6-9.5,9.1-25.9,19.2-2.6,1.6-5.1,3-7.4,4.4-4.5,1.5-8.7,2.9-12.3,4.3,2.9-2.5,6.2-5.6,9.6-9.1,2.2-1.4,4.5-2.9,7.1-4.5ZM91.3,44.9c13.2-14,22.5-21.4,24.1-21.4h0c0,1.6-6.8,11.3-20,25.3-2.1,2.2-4.1,4.3-6,6.2-4,2.6-8.8,5.9-12.6,8.8.2-.3.4-.5.6-.8,2.2-3,4.8-6.8,7.4-11,2-2.2,4.1-4.6,6.5-7.1ZM84.1,40.1c9.7-16.6,17.1-25.9,18.7-26.2.5,1.6-4.1,12.5-13.8,29.1-1.8,3-3.5,5.8-5.1,8.4-3.3,3.7-6.2,7.3-8.6,10.3,0,0-.1.2-.2.3,1.8-4.6,3.6-10.2,5-14.8,1.2-2.2,2.5-4.6,4-7ZM73.8,45.3c.6-2.5,1.3-5.1,2-7.8,5-18.5,9.7-29.4,11.1-30.2.9,1.4-.6,13.2-5.7,31.7-.8,2.8-1.5,5.4-2.2,7.8-1.9,3.4-4.1,7.6-5.9,11.5.4-4.3.6-9,.7-12.9ZM70,5c1.2,1.1,2.8,12.9,2.8,32.1s0,5.5-.1,8c-1.1,4.7-2.1,9.1-2.8,12.9-.7-3.7-1.6-8-2.7-12.5,0-2.6-.1-5.4-.1-8.4,0-19.2,1.6-31,2.8-32.1ZM53,7.4c1.4.8,6.1,11.7,11.1,30.2.8,2.8,1.5,5.5,2.1,8,.1,3.9.3,8.6.7,12.8-1.9-3.9-4.1-8.1-6-11.6-.7-2.4-1.5-5-2.2-7.8-5-18.5-6.5-30.3-5.7-31.7ZM51,43.2c-9.7-16.6-14.2-27.5-13.8-29.1,1.6.4,9,9.7,18.7,26.2,1.5,2.5,2.8,4.8,4,7,1.4,4.5,3.2,10.2,5,14.8,0,0-.1-.2-.2-.3-2.3-3-5.3-6.6-8.6-10.3-1.6-2.5-3.3-5.3-5.1-8.4ZM44.6,49c-13.2-14-20.1-23.6-20-25.3h0c1.6,0,10.9,7.4,24.1,21.4,2.4,2.6,4.6,5,6.6,7.2,2.4,3.8,5.3,8.2,7.9,11.7-.2-.2-.4-.3-.6-.5-3.3-2.5-7.4-5.4-12-8.4-1.9-1.9-3.9-3.9-6-6.2ZM39.8,56.4c-16.4-10-25.5-17.6-25.9-19.2,1.6-.4,12.5,4.3,28.8,14.3,2.6,1.6,4.9,3.1,7.1,4.5,2.8,2.8,6.3,6.2,9.5,9-3.5-1.4-7.7-2.9-12.2-4.3-2.3-1.3-4.8-2.8-7.4-4.4ZM37.2,64.7c-18.4-5.4-29.3-10.3-30-11.7,1.4-.8,13.1.9,31.6,6.3,2.8.8,5.5,1.6,8,2.4,4.2,2.4,8.2,4.6,11.7,6.3-4.2-.5-9-.8-12.9-.9-2.6-.7-5.4-1.4-8.3-2.3ZM36.8,73.5c-19.2-.4-30.9-2.3-32-3.5,1.1-1.2,12.9-2.6,32.1-2.2,3,0,5.8.2,8.4.3,3.5.9,7.6,1.9,11.5,2.7-4,.7-8.7,1.6-13.6,2.7-2,0-4.2,0-6.4,0ZM38.7,81.6c-18.6,4.7-30.4,5.9-31.8,5,.8-1.4,11.8-5.9,30.4-10.5,2.1-.5,4.2-1,6.1-1.5,3.9,0,8.9,0,13.5-.4-3.8,1.7-7.8,3.7-11,5.4-2.3.6-4.7,1.3-7.3,1.9ZM42.5,89.2c-16.8,9.3-27.9,13.5-29.4,13,.4-1.6,9.9-8.7,26.7-18,2.3-1.3,4.5-2.4,6.6-3.5,4.7-1.3,9-2.6,12.6-3.9-3,2.4-6.4,5.4-10,8.7-2,1.2-4.2,2.4-6.5,3.7ZM48.1,95.6c-13.8,13.2-23.4,20.2-25.1,20.2,0,0,0,0,0,0,0-1.6,7.3-11,21.2-24.3,1.9-1.8,3.7-3.5,5.4-5.1,4.2-2.4,8-4.8,11.2-7-2.3,3.1-4.8,6.9-7.4,10.9-1.6,1.7-3.4,3.4-5.3,5.2ZM55.2,100.3c-10,16.4-17.5,25.6-19.1,25.9-.4-1.6,4.3-12.5,14.2-28.9,1.4-2.3,2.7-4.4,4-6.4,3.1-3.1,6.9-7.1,10.1-10.8-1.3,3.3-2.5,7.1-3.6,10.5-1.6,3-3.5,6.2-5.6,9.7ZM66.1,95.4c-.6,2.4-1.3,4.9-2,7.6-5.1,18.5-9.9,29.4-11.3,30.1-.8-1.4.7-13.2,5.9-31.7,1-3.8,2.1-7.2,3.1-10.3,2-3.6,3.7-6.9,5.2-9.9-.4,4.6-.6,9.9-.8,14.1ZM63.8,85.1c1.1-3,2-5.6,2.9-7.6.2,0,.4.2.6.3,0,0,0,0,0,.1-.9,2-2.1,4.4-3.5,7.2ZM70,135.6c-1.2-1.1-2.8-12.9-2.9-32.1,0-2.8,0-5.4,0-7.9,1.1-4.5,2.1-8.7,2.8-12.4.7,3.6,1.6,7.7,2.7,12,0,2.6.1,5.4.1,8.3,0,19.2-1.6,31-2.8,32.1ZM81.3,101.3c5.1,18.5,6.7,30.3,5.9,31.7-1.4-.8-6.2-11.6-11.3-30.1-.8-2.7-1.4-5.3-2.1-7.8-.2-5.3-.4-10.2-.9-14.2,1.4,3,3.2,6.5,5.3,10.2,1,3.1,2,6.6,3.1,10.3ZM89.6,97.2c10,16.4,14.6,27.3,14.2,28.9-1.6-.3-9.1-9.5-19-25.9-2.1-3.5-4-6.7-5.6-9.6-1.1-3.4-2.3-7.1-3.6-10.5,2.8,3.2,6.2,6.9,10.1,10.9,1.3,2,2.6,4.1,3.9,6.3ZM95.8,91.3c13.8,13.3,21.2,22.6,21.2,24.3,0,0,0,0,0,0-1.7,0-11.3-7-25.1-20.2-1.9-1.8-3.7-3.6-5.3-5.2-2.6-4.1-5.1-7.8-7.4-10.9,3.2,2.2,7.1,4.5,11.2,7,1.7,1.6,3.5,3.3,5.4,5.1ZM100.2,84.1c16.8,9.3,26.3,16.4,26.7,18-1.5.5-12.6-3.7-29.4-13-2.3-1.3-4.4-2.5-6.5-3.7-3.6-3.3-7-6.2-10-8.7,3.7,1.3,8,2.6,12.6,3.9,2.1,1.1,4.3,2.3,6.6,3.5ZM102.7,75.9c18.6,4.7,29.6,9.1,30.4,10.5-1.4.9-13.2-.4-31.8-5-2.6-.6-5-1.3-7.3-1.9-3.2-1.7-7.2-3.7-11-5.4,4.6.3,9.6.4,13.5.4,2,.4,4,.9,6.1,1.5ZM96.7,73.4c-4.9-1.1-9.6-2.1-13.6-2.7,3.9-.8,8-1.8,11.5-2.7,2.6-.1,5.4-.2,8.4-.3,19.2-.4,31,1,32.1,2.2-1.1,1.2-12.8,3.1-32,3.5-2.2,0-4.4,0-6.4,0Z"/>
    </g>
  </g>
</svg>