<?xml version="1.0" encoding="UTF-8"?>
<svg xmlns="http://www.w3.org/2000/svg" version="1.1" viewBox="0 0 315 94">
  <defs>
    <style>
      .cls-1 {
        fill: #eeb97c;
      }

      .cls-2 {
        fill: none;
        stroke: #eeb97c;
        stroke-linecap: round;
        stroke-linejoin: round;
        stroke-width: 2px;
      }
    </style>
  </defs>
  <!-- Generator: Adobe Illustrator 28.7.8, SVG Export Plug-In . SVG Version: 1.2.0 Build 200)  -->
  <g>
    <g id="_圖層_1" data-name="圖層_1">
      <g>
        <path class="cls-2" d="M0,71.5s1.6,1.5,4.8,3.6"/>
        <path class="cls-1" d="M61.2,93.4h-1.5c-.6,0-1-.5-1-1s.4-1,1-1c3.8,0,7.7,0,11.6-.5.6,0,1,.3,1.1.9,0,.5-.3,1-.9,1.1-3.4.3-6.9.5-10.3.5ZM48.1,92.5h0c-3.9-.5-7.8-1.2-11.6-2.2-.5,0-.9-.7-.7-1.2,0-.5.7-.9,1.2-.7,3.7.9,7.6,1.6,11.4,2.1.5,0,.9.6.9,1.1s-.5.9-1,.9h-.1ZM82.9,91.1c-.5,0-.9-.3-1-.8s.2-1.1.8-1.2c3.7-.8,7.5-1.7,11.2-2.9.5-.2,1.1,0,1.3.7.2.5,0,1.1-.7,1.2-3.8,1.2-7.6,2.2-11.4,2.9h-.2ZM25.4,86.9h-.4c-3.7-1.4-7.3-3-10.8-4.8-.5-.3-.7-.9-.4-1.3.3-.5.9-.7,1.3-.4,3.4,1.8,7,3.3,10.6,4.7.5.2.8.8.6,1.3-.2.4-.5.6-.9.6h0ZM105.2,84.3c-.4,0-.8-.2-.9-.6-.2-.5,0-1.1.5-1.3,3.5-1.4,7-3,10.6-4.8.5-.2,1.1,0,1.3.4s0,1.1-.4,1.3c-3.6,1.8-7.2,3.4-10.7,4.9h-.4ZM126.1,73.8c-.3,0-.7-.2-.9-.5-.3-.5,0-1.1.3-1.4,3.3-1.9,6.5-4.1,9.8-6.3.5-.3,1.1-.2,1.4.3.3.5.2,1.1-.3,1.4-3.3,2.2-6.6,4.4-9.9,6.3-.2,0-.3,0-.5,0h.1ZM145.4,60.6c-.3,0-.6,0-.8-.4-.3-.4-.3-1.1.2-1.4,3-2.3,6-4.8,9-7.3.4-.4,1-.3,1.4,0,.4.4.3,1.1-.1,1.4-3,2.6-6.1,5.1-9.1,7.4-.2,0-.4.2-.6.2h0ZM304.1,55.9c-.4,0-.7-.2-.9-.5-1.9-3.6-3.8-7-5.7-10.1-.3-.5-.1-1.1.3-1.4.5-.3,1.1,0,1.4.3,2,3.2,3.9,6.7,5.8,10.2.3.5,0,1.1-.4,1.3-.1,0-.3,0-.5,0h0ZM163.1,45.4c-.3,0-.5,0-.7-.3-.4-.4-.4-1,0-1.4.7-.6,1.3-1.3,2-1.9,2.2-2.1,4.4-4.1,6.6-6.1.4-.4,1-.3,1.4,0,.4.4.3,1,0,1.4-2.1,1.9-4.3,3.9-6.5,6-.7.6-1.4,1.3-2,1.9-.2.2-.4.3-.7.3h-.1ZM291.9,36c-.3,0-.6,0-.8-.4-2.4-3.2-4.8-6.2-7.3-9-.4-.4-.3-1,0-1.4.4-.4,1-.3,1.4,0,2.5,2.8,5.1,5.8,7.5,9.1.3.4.2,1.1-.2,1.4-.2,0-.4.2-.6.2h0ZM180.6,29.9c-.3,0-.6-.1-.8-.4-.3-.4-.3-1.1.2-1.4,3.2-2.5,6.3-4.9,9.4-7,.5-.3,1.1-.2,1.4.3.3.5.2,1.1-.3,1.4-3.1,2.1-6.2,4.4-9.3,6.9-.2.1-.4.2-.6.2h0ZM276,18.9c-.2,0-.4,0-.6-.2-3.1-2.5-6.2-4.7-9.5-6.6-.5-.3-.6-.9-.4-1.4.3-.5.9-.6,1.4-.4,3.3,1.9,6.6,4.2,9.7,6.7.4.4.5,1,.1,1.4-.2.2-.5.4-.8.4h0ZM199.9,16.7c-.3,0-.7-.2-.9-.5-.3-.5-.1-1.1.4-1.4,3.5-2,7.1-3.8,10.5-5.3.5-.2,1.1,0,1.3.5s0,1.1-.5,1.3c-3.4,1.5-6.8,3.2-10.3,5.2-.2,0-.3.1-.5.1h0ZM255.8,7.5h-.3c-3.6-1.2-7.4-2-11.2-2.3-.5,0-1-.5-.9-1.1,0-.5.5-1,1.1-.9,3.9.4,7.8,1.2,11.6,2.4.5.2.8.7.6,1.3-.1.4-.5.7-1,.7h0ZM221.3,7.5c-.4,0-.8-.3-1-.7-.2-.5.2-1.1.7-1.2,3.9-1.1,7.8-1.9,11.6-2.3.5,0,1,.3,1.1.9,0,.5-.3,1-.9,1.1-3.7.4-7.5,1.1-11.3,2.2h-.3,0Z"/>
        <path class="cls-2" d="M309.3,65.5c1,2.1,1.8,3.9,2.5,5.5"/>
      </g>
    </g>
  </g>
</svg>