<?xml version="1.0" encoding="UTF-8"?>
<svg xmlns="http://www.w3.org/2000/svg" version="1.1" viewBox="0 0 180 120">
  <defs>
    <style>
      .cls-1 {
        fill: #eeb97c;
      }
    </style>
  </defs>
  <!-- Generator: Adobe Illustrator 28.7.8, SVG Export Plug-In . SVG Version: 1.2.0 Build 200)  -->
  <g>
    <g id="_圖層_1" data-name="圖層_1">
      <path class="cls-1" d="M52.9,118.2c-.4,0-.7-.3-.8-.7,0-.4.3-.8.7-.8,3.1,0,6.1-.2,8.9-.5.4,0,.8.2.8.7,0,.4-.2.8-.7.8-2.9.3-5.9.5-9.1.5h0ZM44,117.9s0,0,0,0c-2.9-.3-5.9-.6-9-1.1-.4,0-.7-.5-.6-.9s.5-.7.9-.6c3,.5,6,.9,8.9,1.1.4,0,.7.4.7.8,0,.4-.4.7-.7.7ZM70.8,116.1c-.3,0-.6-.2-.7-.6-.1-.4.1-.8.5-.9,2.9-.8,5.8-1.7,8.4-2.9.4-.2.8,0,1,.4.2.4,0,.8-.4,1-2.7,1.2-5.6,2.2-8.6,3,0,0-.1,0-.2,0ZM26.2,115c0,0-.1,0-.2,0-2.9-.7-5.8-1.5-8.7-2.3-.4-.1-.6-.5-.5-.9.1-.4.5-.6.9-.5,2.9.9,5.8,1.6,8.7,2.3.4,0,.7.5.6.9,0,.3-.4.6-.7.6ZM8.9,109.8c0,0-.2,0-.3,0-5.2-1.9-8.4-3.4-8.4-3.4-.4-.2-.5-.6-.4-1,.2-.4.6-.5,1-.4,0,0,3.2,1.5,8.3,3.3.4.1.6.6.5,1-.1.3-.4.5-.7.5ZM87.1,108.7c-.2,0-.5-.1-.6-.3-.2-.3-.1-.8.2-1,2.4-1.7,4.7-3.6,6.8-5.7.3-.3.8-.3,1.1,0,.3.3.3.8,0,1.1-2.1,2.2-4.5,4.2-7,5.9-.1,0-.3.1-.4.1ZM99.6,96c-.1,0-.3,0-.4-.1-.3-.2-.4-.7-.2-1,1.6-2.4,3.1-5,4.3-7.7.2-.4.6-.5,1-.4.4.2.5.6.4,1-1.3,2.8-2.8,5.5-4.5,7.9-.1.2-.4.3-.6.3ZM107.2,79.8c0,0-.2,0-.2,0-.4-.1-.6-.5-.5-.9.9-2.7,1.6-5.6,2.2-8.6,0-.4.5-.7.9-.6.4,0,.7.5.6.9-.6,3.1-1.4,6-2.3,8.8-.1.3-.4.5-.7.5ZM110.9,62.2s0,0,0,0c-.4,0-.7-.4-.6-.8.4-3.1,1-6.1,1.7-8.9.1-.4.5-.6.9-.5.4,0,.6.5.5.9-.7,2.8-1.2,5.7-1.6,8.7,0,.4-.4.7-.7.7ZM115.3,44.8c0,0-.2,0-.3,0-.4-.1-.6-.6-.4-1,1.1-2.9,2.4-5.6,3.9-8.2.2-.4.7-.5,1-.3.4.2.5.7.3,1-1.4,2.5-2.7,5.2-3.8,8-.1.3-.4.5-.7.5ZM124.1,29.2c-.2,0-.3,0-.5-.2-.3-.3-.4-.7-.1-1.1,1.9-2.4,4-4.6,6.2-6.7.3-.3.8-.3,1.1,0,.3.3.3.8,0,1.1-2.2,2-4.2,4.2-6,6.5-.1.2-.4.3-.6.3ZM137.3,17c-.2,0-.5-.1-.6-.3-.2-.3-.1-.8.2-1,2.4-1.7,5.1-3.2,7.8-4.6.4-.2.8,0,1,.3.2.4,0,.8-.3,1-2.7,1.4-5.3,2.9-7.7,4.5-.1,0-.3.1-.4.1ZM153.2,8.8c-.3,0-.6-.2-.7-.5-.1-.4,0-.8.4-1,2.7-1,5.6-2,8.6-2.8.4-.1.8.1.9.5.1.4-.1.8-.5.9-2.9.8-5.8,1.7-8.5,2.8,0,0-.2,0-.3,0ZM170.5,4c-.4,0-.7-.2-.7-.6,0-.4.2-.8.6-.9,2.9-.6,5.9-1,8.9-1.4.4,0,.8.2.8.7s-.2.8-.7.8c-3,.4-6,.8-8.8,1.4,0,0,0,0-.1,0Z"/>
    </g>
  </g>
</svg>