<?xml version="1.0" encoding="UTF-8"?>
<svg xmlns="http://www.w3.org/2000/svg" version="1.1" viewBox="0 0 160 137">
  <defs>
    <style>
      .cls-1 {
        fill: #eeb97c;
      }
    </style>
  </defs>
  <!-- Generator: Adobe Illustrator 28.7.8, SVG Export Plug-In . SVG Version: 1.2.0 Build 200)  -->
  <g>
    <g id="_圖層_1" data-name="圖層_1">
      <path class="cls-1" d="M158.7,33.4c3.8,19.4-11.5,42.3-23.9,56.2-8.9,10.1-19.4,18.6-30.9,25.6s-23.9,12.5-36.6,16.7c-8,2.7-16.4,4.7-24.9,4.6-6.8-.1-14.4-.8-20.5-4-5.7-2.9-10.6-7.4-13.9-12.9-2.9-4.7-5.3-9.3-6.4-14.8s-1-10.5,0-15.7c2.1-10.5,8.5-20,17.7-25.5s.5-.3.7-.4c7.1-4.1,15.3-5.3,23-7.7,13.9-4.1,26.8-10.9,34.9-23,2.5-3.7,4.5-8,6.9-11.8,19.4-32.3,66.1-24,74,12.6v.2Z"/>
    </g>
  </g>
</svg>